<mxfile host="Electron" modified="2023-05-31T19:41:31.005Z" agent="Mozilla/5.0 (Windows NT 10.0; Win64; x64) AppleWebKit/537.36 (KHTML, like Gecko) draw.io/21.2.8 Chrome/112.0.5615.165 Electron/24.2.0 Safari/537.36" etag="ajdOHAtLQxQwPtyJAV7-" version="21.2.8" type="device">
  <diagram name="PÃ¡gina-1" id="0wV69fFjBCcp7NJNkhMh">
    <mxGraphModel dx="1091" dy="1807" grid="1" gridSize="10" guides="1" tooltips="1" connect="1" arrows="1" fold="1" page="1" pageScale="1" pageWidth="827" pageHeight="1169" math="0" shadow="0">
      <root>
        <mxCell id="0" />
        <mxCell id="1" parent="0" />
        <mxCell id="4u9VaEcgTZ2hnfMwoNmx-1" style="edgeStyle=orthogonalEdgeStyle;rounded=0;orthogonalLoop=1;jettySize=auto;html=1;fontStyle=1" edge="1" parent="1" source="4u9VaEcgTZ2hnfMwoNmx-2" target="4u9VaEcgTZ2hnfMwoNmx-15">
          <mxGeometry relative="1" as="geometry">
            <mxPoint x="440" y="-360" as="targetPoint" />
          </mxGeometry>
        </mxCell>
        <mxCell id="4u9VaEcgTZ2hnfMwoNmx-2" value="REFRESH" style="rounded=1;whiteSpace=wrap;html=1;fontSize=12;glass=0;strokeWidth=1;shadow=0;fontStyle=1" vertex="1" parent="1">
          <mxGeometry x="380" y="-440" width="120" height="40" as="geometry" />
        </mxCell>
        <mxCell id="4u9VaEcgTZ2hnfMwoNmx-26" style="edgeStyle=orthogonalEdgeStyle;rounded=0;orthogonalLoop=1;jettySize=auto;html=1;" edge="1" parent="1" source="4u9VaEcgTZ2hnfMwoNmx-15" target="4u9VaEcgTZ2hnfMwoNmx-25">
          <mxGeometry relative="1" as="geometry" />
        </mxCell>
        <mxCell id="4u9VaEcgTZ2hnfMwoNmx-15" value="RECEIVE 404" style="rounded=1;whiteSpace=wrap;html=1;fontSize=12;glass=0;strokeWidth=1;shadow=0;fontStyle=1" vertex="1" parent="1">
          <mxGeometry x="380" y="-360" width="120" height="40" as="geometry" />
        </mxCell>
        <mxCell id="4u9VaEcgTZ2hnfMwoNmx-28" style="edgeStyle=orthogonalEdgeStyle;rounded=0;orthogonalLoop=1;jettySize=auto;html=1;" edge="1" parent="1" source="4u9VaEcgTZ2hnfMwoNmx-25" target="4u9VaEcgTZ2hnfMwoNmx-27">
          <mxGeometry relative="1" as="geometry" />
        </mxCell>
        <mxCell id="4u9VaEcgTZ2hnfMwoNmx-25" value="FALLBACK TO INDEX.HTML" style="rounded=1;whiteSpace=wrap;html=1;fontSize=12;glass=0;strokeWidth=1;shadow=0;fontStyle=1" vertex="1" parent="1">
          <mxGeometry x="380" y="-280" width="120" height="40" as="geometry" />
        </mxCell>
        <mxCell id="4u9VaEcgTZ2hnfMwoNmx-30" value="" style="edgeStyle=orthogonalEdgeStyle;rounded=0;orthogonalLoop=1;jettySize=auto;html=1;" edge="1" parent="1" source="4u9VaEcgTZ2hnfMwoNmx-27" target="4u9VaEcgTZ2hnfMwoNmx-29">
          <mxGeometry relative="1" as="geometry" />
        </mxCell>
        <mxCell id="4u9VaEcgTZ2hnfMwoNmx-27" value="REACT ROUTER MOUNTS" style="rounded=1;whiteSpace=wrap;html=1;fontSize=12;glass=0;strokeWidth=1;shadow=0;fontStyle=1" vertex="1" parent="1">
          <mxGeometry x="380" y="-200" width="120" height="40" as="geometry" />
        </mxCell>
        <mxCell id="4u9VaEcgTZ2hnfMwoNmx-34" style="edgeStyle=orthogonalEdgeStyle;rounded=0;orthogonalLoop=1;jettySize=auto;html=1;" edge="1" parent="1" source="4u9VaEcgTZ2hnfMwoNmx-29" target="4u9VaEcgTZ2hnfMwoNmx-31">
          <mxGeometry relative="1" as="geometry" />
        </mxCell>
        <mxCell id="4u9VaEcgTZ2hnfMwoNmx-29" value="COMPONENT RENDER BASED ON URI" style="rounded=1;whiteSpace=wrap;html=1;fontSize=10;glass=0;strokeWidth=1;shadow=0;fontStyle=1" vertex="1" parent="1">
          <mxGeometry x="380" y="-120" width="120" height="40" as="geometry" />
        </mxCell>
        <mxCell id="4u9VaEcgTZ2hnfMwoNmx-35" style="edgeStyle=orthogonalEdgeStyle;rounded=0;orthogonalLoop=1;jettySize=auto;html=1;entryX=0.5;entryY=0;entryDx=0;entryDy=0;exitX=0.5;exitY=1;exitDx=0;exitDy=0;" edge="1" parent="1" source="4u9VaEcgTZ2hnfMwoNmx-31" target="4u9VaEcgTZ2hnfMwoNmx-2">
          <mxGeometry relative="1" as="geometry">
            <Array as="points">
              <mxPoint x="440" y="80" />
              <mxPoint x="320" y="80" />
              <mxPoint x="320" y="-460" />
              <mxPoint x="440" y="-460" />
            </Array>
          </mxGeometry>
        </mxCell>
        <mxCell id="4u9VaEcgTZ2hnfMwoNmx-37" style="edgeStyle=orthogonalEdgeStyle;rounded=0;orthogonalLoop=1;jettySize=auto;html=1;" edge="1" parent="1" source="4u9VaEcgTZ2hnfMwoNmx-31">
          <mxGeometry relative="1" as="geometry">
            <mxPoint x="440" y="-140" as="targetPoint" />
            <Array as="points">
              <mxPoint x="560" />
              <mxPoint x="560" y="-140" />
            </Array>
          </mxGeometry>
        </mxCell>
        <mxCell id="4u9VaEcgTZ2hnfMwoNmx-31" value="refresh" style="rhombus;whiteSpace=wrap;html=1;shadow=0;fontFamily=Helvetica;fontSize=12;align=center;strokeWidth=1;spacing=6;spacingTop=-4;fontStyle=1" vertex="1" parent="1">
          <mxGeometry x="390" y="-40" width="100" height="80" as="geometry" />
        </mxCell>
        <mxCell id="4u9VaEcgTZ2hnfMwoNmx-32" value="No" style="text;html=1;align=center;verticalAlign=middle;resizable=0;points=[];autosize=1;strokeColor=none;fillColor=none;fontStyle=1" vertex="1" parent="1">
          <mxGeometry x="490" y="-30" width="40" height="30" as="geometry" />
        </mxCell>
        <mxCell id="4u9VaEcgTZ2hnfMwoNmx-33" value="Yes" style="text;html=1;align=center;verticalAlign=middle;resizable=0;points=[];autosize=1;strokeColor=none;fillColor=none;fontStyle=1" vertex="1" parent="1">
          <mxGeometry x="460" y="30" width="40" height="30" as="geometry" />
        </mxCell>
      </root>
    </mxGraphModel>
  </diagram>
</mxfile>
